<svg xmlns="http://www.w3.org/2000/svg" x="0" y="0" version="1.1" viewBox="0 0 512.001 512.001" xml:space="preserve" style="enable-background:new 0 0 512.001 512.001"><linearGradient id="SVGID_1_" x1=".173" x2="511.834" y1="257.998" y2="257.998" gradientTransform="matrix(1 0 0 -1 -4.789662e-004 513.9965)" gradientUnits="userSpaceOnUse"><stop offset="0" style="stop-color:#c51d4a"/><stop offset="1" style="stop-color:#901d3b"/></linearGradient><path style="fill:url(#SVGID_1_)" d="M223.284,96.005c-0.513,8.076-1.036,16.833-1.582,25.974	c-4.039,67.614-9.569,160.215-25.506,237.922c-9.113,44.436-20.342,77.979-34.33,102.551c-18.716,32.879-42.618,49.55-71.039,49.55	c-11.046,0-20-8.954-20-20c0-11.046,8.954-20,20-20c26.792,0,50.296-42.666,66.184-120.137	c15.363-74.908,20.795-165.86,24.761-232.27c0.492-8.241,0.966-16.16,1.432-23.59h-36.378c-32.941,0-60.798,14.077-82.799,41.841	c-17.476,22.052-24.658,44.798-24.728,45.025c-2.618,8.628-10.537,14.17-19.106,14.171c-1.929,0-3.889-0.281-5.831-0.87	c-10.57-3.208-16.529-14.406-13.322-24.976c0.357-1.176,8.989-29.122,30.683-56.979c29.655-38.083,69.456-58.211,115.103-58.211	h261.349c28.667,0,54.806-17.42,65.046-43.347C477.28,2.384,488.898-2.654,499.17,1.403c10.273,4.058,15.313,15.675,11.255,25.948	c-8.071,20.435-22.134,37.75-40.669,50.073c-18.282,12.155-39.576,18.58-61.58,18.58H223.284V96.005z M492.245,377.007	c-11.009-0.211-20.184,8.531-20.417,19.575c-0.004,0.193-0.671,19.863-10.122,39.103c-12.005,24.438-32.029,36.318-61.215,36.318	c-14.747,0-25.734-4.3-33.591-13.146c-17.351-19.537-17.111-57.787-15.561-70.831c0.028-0.229,0.053-0.458,0.073-0.687	c0.102-1.155,10.335-116.617,17.536-214.871c0.808-11.016-7.468-20.601-18.484-21.408c-11.016-0.813-20.601,7.468-21.408,18.484	c-7.015,95.705-16.92,207.856-17.464,214.002c-0.306,2.724-1.77,17.432-0.048,35.585c2.644,27.873,11.164,50.128,25.323,66.145	c15.455,17.485,37.456,26.727,63.623,26.727c24.553,0,45.887-6.207,63.411-18.448c14.084-9.838,25.424-23.375,33.706-40.234	c13.463-27.407,14.187-54.746,14.211-55.896C512.052,386.381,503.288,377.24,492.245,377.007z"/></svg>